<?xml version="1.0" encoding="utf-8"?>
<!-- Generator: Adobe Illustrator 22.1.0, SVG Export Plug-In . SVG Version: 6.00 Build 0)  -->
<svg version="1.1" id="Layer_1" xmlns="http://www.w3.org/2000/svg" xmlns:xlink="http://www.w3.org/1999/xlink" x="0px" y="0px"
	 viewBox="0 0 579.7 169.2" style="enable-background:new 0 0 579.7 169.2;" xml:space="preserve">
<style type="text/css">
	.st0{fill:url(#SVGID_1_);}
	.st1{clip-path:url(#SVGID_3_);}
	.st2{opacity:0.47;}
	.st3{fill:#EDEEEF;}
</style>
<g>
	
		<radialGradient id="SVGID_1_" cx="289.855" cy="321.3923" r="211.391" gradientTransform="matrix(1 0 0 -1.142 0 450.6107)" gradientUnits="userSpaceOnUse">
		<stop  offset="0" style="stop-color:#BFD03B"/>
		<stop  offset="0.335" style="stop-color:#BDCD3A"/>
		<stop  offset="0.602" style="stop-color:#B6C336"/>
		<stop  offset="0.844" style="stop-color:#AAB230"/>
		<stop  offset="1" style="stop-color:#9FA32B"/>
	</radialGradient>
	<rect y="1.6" class="st0" width="579.7" height="167.2"/>
	<g>
		<defs>
			<rect id="SVGID_2_" y="1.6" width="579.7" height="167.2"/>
		</defs>
		<clipPath id="SVGID_3_">
			<use xlink:href="#SVGID_2_"  style="overflow:visible;"/>
		</clipPath>
		<g class="st1">
			<g class="st2">
				<path class="st3" d="M282.3,7.7c0.5,0.3,1,0.7,1.5,1c0.4,0.3,0.9,0.7,1.4,0.9c8.9,5.3,18.4,8.3,26.7,8.3l0,0
					c8.2,0,15.1-2.7,20.6-8.1c2.9-2.8,5.2-6.1,6.8-9.8H339c-1.6,3.6-3.9,6.9-6.7,9.7c-5.4,5.3-12.8,8.2-20.4,8l0,0
					c-8.2,0-17.6-2.9-26.5-8.2c-0.5-0.3-0.9-0.6-1.4-0.9c-0.5-0.3-1-0.7-1.5-1c-4-2.3-8.3-4.5-12.5-6.6c-0.6-0.3-1.2-0.6-1.8-0.9
					h-0.4c0.7,0.4,1.4,0.7,2.1,1.1C274,3.2,278.3,5.3,282.3,7.7z"/>
				<path class="st3" d="M17.6,25c5.8-3.6,11.8-7.4,15.6-12.7c2.5-3.7,4.1-7.9,4.7-12.3h-0.3C37,4.4,35.4,8.6,33,12.3
					c-3.8,5.3-9.8,9-15.5,12.6c-6.7,4.2-13.7,8.5-17.1,15.4c-0.1,0.2-0.2,0.4-0.3,0.6v0.6c0.2-0.4,0.4-0.8,0.5-1.2
					C4,33.5,10.9,29.2,17.6,25z"/>
				<path class="st3" d="M310,9.6L310,9.6c2.8,0,5.6-0.7,8.1-2c1.8-0.9,3.4-2.2,4.8-3.7c0.5-0.5,1-1.1,1.7-1.7
					c0.5-0.7,0.9-1.5,1.2-2.3h-0.3c-0.3,0.7-0.7,1.5-1.2,2.2c-0.6,0.5-1.1,1.1-1.7,1.7c-1.3,1.5-2.9,2.7-4.7,3.6
					c-2.5,1.3-5.2,1.9-8,1.9l0,0c-7.5,0-14.6-4.4-20.9-8.3L287.4,0H287c0.6,0.4,1.2,0.8,1.9,1.2C295.2,5.1,302.4,9.6,310,9.6z"/>
				<path class="st3" d="M4.9,56.5c1.3-4.7,2.6-9.1,4.5-12.2c3.3-5.3,10-9.8,17.2-14.5c4.5-2.8,8.7-5.9,12.8-9.2
					c4.2-3.4,7.8-7.4,10.7-11.9c1.6-2.6,3-5.3,4.3-8.1c0.1-0.2,0.3-0.5,0.4-0.7h-0.3c-0.1,0.2-0.2,0.5-0.3,0.7
					c-1.2,2.8-2.7,5.5-4.3,8.1c-2.9,4.5-6.5,8.5-10.7,11.8c-4.1,3.3-8.3,6.4-12.8,9.2c-7.2,4.8-14,9.2-17.3,14.6
					c-1.9,3.1-3.2,7.5-4.5,12.2C3.3,61,2,65.7,0,69.1c0,0,0,0.1,0,0.1v0.5c0.1-0.2,0.2-0.3,0.3-0.5C2.3,65.7,3.6,61.1,4.9,56.5z"/>
				<path class="st3" d="M26.8,114.6c9.3,2.5,21,5.6,25.4,11.9c0.3,3.5-1.5,6.4-3.4,9.5c-2.7,4.4-5.8,9.3-4.1,17
					c1.3,5.9,6.5,9.6,12.4,14c2.5,1.8,5,3.7,7.4,5.8c5.5,5,10.2,10.8,13.9,17.2c3.4,5.4,6,9.6,14.8,11c5.3,0.8,12.6,1.4,17.7,1.8
					c2.8,0.2,5.4,0.3,7.7,0.3c3.4,0,6.7-0.2,10-0.8c6-1.2,9.8-4.4,14.5-8.6c1.4-1.2,2.9-2.5,4.6-3.8c1.1-0.9,2.6-1.9,4.2-3
					c3.3-2.2,6.7-4.5,7.6-6.4c0.3-0.7,0.3-1.4,0.2-2.1c-0.1-0.6-0.1-1.3-0.1-1.9l0,0l0,0c-3.4-2.8-7-5.2-10.8-7.3
					c-6.4-3.7-12.4-7.3-14.7-13.1c-1.2-3.1-0.8-6.3,1.3-10c2.2-3.9,7.4-8.1,14.6-12c3.3-1.7,6.7-3.5,10.4-5.5
					c16.8-8.8,35.8-18.7,46.2-27.4l0-0.1c0.3-1.2,0.2-2.5-0.2-3.6c-1.3-3.6-5.6-8-11.7-11.9c-5.8-3.7-12.4-6.5-17.6-7.4
					c-0.4-0.1-1.2-0.2-2.1-0.3c-7-1-14.2-0.3-21.2,0.4c-6,0.6-11.8,1.2-17.4,0.7c-12-1.1-20.7-6.5-23.7-14.8
					c-4-11,7.1-17.8,17.8-24.5c7.9-4.9,16.1-10,18.3-16.7c2-6.3-0.6-13.1-2.4-17.6c-0.7-1.9-1.6-3.7-2.5-5.4h-0.3
					c0.9,1.8,1.8,3.6,2.5,5.5c1.7,4.5,4.4,11.3,2.4,17.5c-2.1,6.7-10.3,11.7-18.2,16.6c-10.8,6.7-22,13.6-17.9,24.7
					c3.1,8.4,11.9,13.9,24,14.9c5.6,0.5,11.3-0.1,17.4-0.7c7-0.7,14.2-1.4,21.1-0.4c0.9,0.1,1.7,0.3,2.1,0.3
					c10.4,1.9,26.2,11.3,29,19.2c0.5,1.1,0.6,2.4,0.3,3.5c-10.4,8.6-29.4,18.6-46.1,27.3c-3.7,1.9-7.1,3.7-10.4,5.5
					c-7.3,3.9-12.5,8.2-14.7,12.1c-2.1,3.7-2.6,7-1.3,10.1c2.3,5.9,8.4,9.4,14.8,13.2c3.8,2.1,7.4,4.5,10.8,7.2
					c-0.1,0.6-0.1,1.3,0,1.9c0.2,0.7,0.1,1.4-0.1,2c-0.9,1.8-4.3,4.1-7.6,6.3c-1.6,1.1-3.1,2.1-4.2,3c-1.7,1.3-3.2,2.6-4.6,3.8
					c-4.8,4.1-8.5,7.3-14.4,8.5c-4.5,0.9-10.2,1.1-17.6,0.5c-5.1-0.4-12.4-1-17.6-1.8c-8.7-1.4-11.3-5.6-14.6-10.9
					c-3.8-6.4-8.5-12.2-13.9-17.3c-2.4-2.1-4.9-4-7.4-5.8c-5.9-4.3-11.1-8.1-12.4-13.9c-1.7-7.7,1.3-12.6,4-16.9
					c1.9-3.1,3.8-6.1,3.5-9.6l0,0c-4.5-6.4-16.2-9.5-25.6-12c-2.6-0.8-5.3-1.4-8.1-1.8c-6.3-0.9-12.6-1.5-18.9-1.6v0.2
					c6.3,0.2,12.6,0.7,18.8,1.6C21.5,113.3,24.2,113.8,26.8,114.6z"/>
				<path class="st3" d="M163.1,5.2c0.7,1.9,1.6,3.7,2.4,5.5c1.8,4,3.4,7.8,4.1,11.2c0.5,2.2,0.5,4.5,0,6.6
					c-1.4,5.2-6.6,9.3-11.7,13.2c-5.8,4.5-11.8,9.2-12.3,15.7c0.6,5.8,10.4,6.6,20.7,7.5c1.9,0.2,3.9,0.3,5.7,0.5
					c8.5,1,16.9,2.5,25.2,4.7c3.1,0.8,6.1,1.8,9,2.7c5.5,1.8,10.8,3.6,16.9,4.1c0.8,0.1,1.6,0.1,2.4,0.1c3.7-0.1,7.3-0.6,10.9-1.5
					c3.1-0.7,5.8-1.5,8.4-2.3c6.2-2,12.6-3.3,19-3.7c1.4-0.1,2.9-0.1,4.4-0.1c8.9,0,16.3,1.6,23.5,3.1c6.2,1.3,12.1,2.5,18.2,2.5
					c1.2,0,2.4,0,3.6-0.1c9.2-0.8,16.4-4,21.7-9.8c4.7-5.1,7.4-11.6,9.7-17.9c1-2.5,1.7-5.1,2.2-7.8c0.4-2.3-0.1-4.1-1.7-5.2
					c-2.8-2.2-8.4-2.3-14.9-2.4c-3-0.1-6-0.1-9-0.4c-12.8-1.1-23.5-2.2-35.3-5.5c-9.8-2.7-19.5-6.1-26-8.5
					c-10.9-4-23.2-8.9-31.9-17.3h-0.3c8.7,8.4,21.1,13.4,32.1,17.4c6.5,2.4,16.2,5.8,26,8.5c11.9,3.3,22.6,4.4,35.4,5.5
					c3,0.3,6.1,0.3,9,0.4c6.4,0.1,12,0.3,14.7,2.4c1.5,1.1,2,2.8,1.6,5.1c-0.5,2.6-1.3,5.2-2.2,7.7c-4.5,12.5-11,25.9-31.2,27.6
					c-1.1,0.1-2.3,0.1-3.5,0.1c-6,0-11.9-1.2-18.1-2.5c-7.2-1.5-14.6-3.1-23.5-3.1c-1.5,0-3,0-4.4,0.1c-6.5,0.4-12.9,1.7-19.1,3.7
					c-2.6,0.8-5.3,1.6-8.4,2.3c-3.5,0.9-7.1,1.4-10.8,1.5c-0.8,0-1.6,0-2.4-0.1c-6.1-0.4-11.3-2.2-16.8-4c-2.9-1-5.9-2-9-2.7
					c-8.3-2.1-16.7-3.7-25.2-4.7c-1.9-0.2-3.9-0.4-5.8-0.5c-10.2-0.9-19.8-1.7-20.5-7.4c0.5-6.4,6.4-11.1,12.2-15.6
					c5.1-3.9,10.3-8.1,11.8-13.3c0.5-2.2,0.5-4.5,0-6.7c-0.7-3.4-2.4-7.2-4.1-11.2c-0.8-1.8-1.6-3.7-2.4-5.5c-0.5-1.2-1-2.4-1.5-3.6
					c-0.2-0.5-0.4-1.1-0.7-1.6h-0.3c0.2,0.6,0.5,1.1,0.7,1.6C162.1,2.8,162.6,4,163.1,5.2z"/>
				<path class="st3" d="M18.7,12c2.7-2.8,5.2-6.3,5.2-12h-0.3c-0.1,5.7-2.5,9.1-5.2,11.9c-3.5,3.6-8.4,5.7-13.7,8
					C3.2,20.5,1.6,21.2,0,22v0.2c1.6-0.8,3.3-1.5,4.9-2.2C10.2,17.7,15.2,15.6,18.7,12z"/>
				<path class="st3" d="M180.7,16.1c1.6,2.5,3.3,5,3.9,7.6c1.6,7.2-4,11.9-9.3,16.4c-3.7,3.1-7.1,6-8.2,9.6
					c-0.2,0.7-0.3,1.4-0.1,2.2c0.1,0.4,0.1,0.9,0.1,1.3v0c1.4,2.5,5.4,4.3,8.6,5.4c11.5,3.8,30.3,5.6,44,6.9
					c2.1,0.2,4.1,0.3,6.2,0.3l0,0c5.2-0.1,10.4-0.5,15.5-1.2c6-0.8,12-1.3,18-1.4c1.8,0,3.6,0.1,5.3,0.1c0.4,0,1.4,0.1,2.7,0.1
					c1.9,0.1,4.3,0.1,5.9,0.2c4.8,0.3,9.5,0.8,14.3,1.6c6.3,1.1,12.6,1.6,19,1.7c0.8,0,1.7,0,2.6,0c6.5-0.8,12-5,14.4-11.1
					c1.9-4.9,1.5-11.5-5.5-15.1c-8.2-4.3-32-8-44.8-8.7c-2.7-0.2-5-0.2-7.2-0.2c-2.5,0-5,0-8.3-0.2c-8.8-0.5-16.1-2.9-24.4-7.8
					c-10.3-6.1-15.8-10.8-23.8-20.2c-0.9-1.1-1.7-2.3-2.4-3.6H207c0.7,1.3,1.5,2.6,2.5,3.7c8,9.4,13.5,14.1,23.9,20.3
					c8.3,5,15.7,7.3,24.6,7.8c3.3,0.2,5.8,0.2,8.3,0.2c2.3,0,4.4,0,7.2,0.2c12.8,0.7,36.5,4.4,44.7,8.7c6.8,3.6,7.2,10.1,5.4,15
					c-2.4,6-7.8,10.2-14.2,11c-0.8,0-1.7,0-2.5,0c-6.3,0-12.7-0.6-18.9-1.7c-4.7-0.8-9.5-1.3-14.3-1.6c-1.7-0.1-4-0.2-5.9-0.3
					c-1.3,0-2.3-0.1-2.7-0.1c-1.8-0.1-3.6-0.2-5.3-0.2c-6.1,0.1-12.1,0.5-18.1,1.4c-5.1,0.7-10.3,1.1-15.5,1.2l0,0
					c-2.1,0-4.2-0.1-6.2-0.3c-13.7-1.3-32.4-3.1-43.9-6.9c-3.1-1-7.2-2.8-8.5-5.3c0-0.5-0.1-0.9-0.1-1.3c-0.1-0.7-0.1-1.4,0.1-2.1
					c1.1-3.5,4.5-6.4,8.1-9.5c5.4-4.6,11-9.3,9.4-16.5c-0.6-2.6-2.3-5.2-3.9-7.6c-0.6-1-1.3-2-1.9-2.9c-2.5-4.1-4.6-8.5-6.1-13.1
					h-0.3c1.6,4.6,3.6,9,6.2,13.2C179.4,14.2,180.1,15.2,180.7,16.1z"/>
				<path class="st3" d="M27.8,88.8c3.7-2.8,7-5.7,10.5-8.9c5.5-5,11.3-10.1,18.7-14.3c0.5-0.3,1-0.7,1.5-1c0.4-0.3,0.9-0.6,1.4-0.9
					c5-2.8,10.3-5.3,15.7-7.3c3.7-1.5,7.5-3.1,11.1-4.9c2.9-1.4,5.7-2.9,8.5-4.3c4.2-2.2,8.5-4.4,12.9-6.4c2.1-1,4.2-1.9,6.5-2.8
					c11.2-4.8,23.8-10.2,25.8-20c1-5.2-1-11.8-5.3-17.8h-0.3c4.3,6,6.3,12.6,5.3,17.8c-1.9,9.7-14.5,15.1-25.7,19.8
					c-2.3,1-4.4,1.9-6.5,2.8c-4.4,2-8.7,4.3-12.9,6.4c-2.8,1.4-5.6,2.9-8.5,4.3c-3.6,1.8-7.4,3.4-11.1,4.9
					c-5.4,2.1-10.6,4.6-15.7,7.4c-0.5,0.3-1,0.6-1.4,1c-0.5,0.4-1,0.7-1.5,1c-7.4,4.2-13.2,9.4-18.7,14.3c-3.5,3.1-6.8,6.1-10.5,8.8
					C20.3,94.1,10.6,97.8,0,99.3v0.2C10.6,98,20.5,94.3,27.8,88.8z"/>
				<path class="st3" d="M11.4,81.8c3.6-3.5,3.6-9.9,3.2-15.1c-0.3-4.2-0.2-12.1,3.9-18.8c3.2-5.1,10.6-9.6,17.9-13.9
					c1.1-0.7,2.2-1.3,3.3-2c14.5-8.8,21.7-16.8,28-26c0.5-0.8,1-1.6,1.5-2.4c0.6-1.1,1.2-2.1,1.9-3c0.1-0.2,0.3-0.4,0.4-0.6h-0.3
					c-0.1,0.2-0.3,0.3-0.4,0.5c-0.7,1-1.3,2-1.9,3.1c-0.5,0.8-0.9,1.6-1.5,2.4c-6.3,9.2-13.5,17.1-27.9,26c-1.1,0.7-2.2,1.3-3.3,2
					c-7.3,4.4-14.8,8.9-17.9,14c-4.1,6.7-4.2,14.7-3.9,18.8c0.4,5.2,0.3,11.5-3.2,15C8.6,84.2,4.5,86,0,87.5v0.2
					C4.6,86.1,8.7,84.3,11.4,81.8z"/>
				<path class="st3" d="M4,4.9C5.6,3.8,6.5,2,6.5,0H6.2c0,1.9-0.8,3.7-2.4,4.8C2.7,5.6,1.4,6,0,6v0.2l0,0C1.4,6.2,2.8,5.8,4,4.9z"
					/>
				<path class="st3" d="M86.5,2.9c-3.8,3-6.6,7.1-9.3,11.1c-0.4,0.6-0.8,1.2-1.2,1.8c-3.9,5.7-8.8,12.8-14.2,17.6
					c-2.9,2.6-7.7,4.5-12.7,6.5c-7.2,2.8-14.6,5.8-17.5,11.2c-1,2-1.1,4.1,0,6.8c1,1.5,2.8,2.2,5.2,2.2l0,0c4,0,8.7-2.1,10.6-3.2
					c3.8-2.3,7.3-5,10.4-8.1c1.7-1.5,3.5-3.2,5.4-4.7c2-1.6,4.2-3,6.6-4.1c6.1-2.4,14-4.3,22.4-6.2c11.6-2.7,23.5-5.5,31-10.1
					c3.8-2.1,6.2-6,6.5-10.3c0.2-4.4-2.1-8.7-6.5-11.9c-0.8-0.6-1.7-1.1-2.5-1.6h-0.4c1,0.5,1.9,1.1,2.8,1.7
					c4.3,3.2,6.6,7.4,6.4,11.7c-0.3,4.3-2.7,8.1-6.4,10.2c-7.4,4.5-19.4,7.4-30.9,10.1c-8.4,2-16.2,3.8-22.4,6.3
					c-2.4,1.1-4.6,2.5-6.7,4.1c-1.9,1.5-3.7,3.1-5.4,4.7c-3.2,3-6.6,5.7-10.4,8c-1.9,1.1-6.5,3.1-10.4,3.1c-2.3,0-4-0.7-4.9-2.1
					c-1-2.6-1-4.7,0.1-6.7c2.9-5.3,10.2-8.3,17.4-11.1c5.1-2,9.9-3.9,12.8-6.6c5.3-4.8,10.2-11.9,14.2-17.6c0.4-0.6,0.8-1.2,1.2-1.8
					C80.2,10.1,83,6,86.8,3c1.5-1.2,3.2-2.2,4.9-3h-0.5C89.6,0.8,88,1.7,86.5,2.9z"/>
				<path class="st3" d="M192.8,48.9L192.8,48.9c0.5,0.4,0.8,0.8,1,1.3l0.1,0.1l0,0.1c2.5,1.4,5.4,2,8.3,1.9l0,0
					c4.8,0,9.6-1.4,11.9-3.4c1.3-0.9,1.8-2.5,1.3-4c-1-2.7-4.8-3.5-9-4.3l0,0l0,0C199.4,41.3,192.1,44.2,192.8,48.9L192.8,48.9z
					 M206.4,40.8c4.1,0.7,7.7,1.5,8.7,4.1c0.5,1.4,0,3-1.3,3.9c-2.3,2-7,3.3-11.7,3.3l0,0c-2.8,0.1-5.6-0.5-8.1-1.9l0-0.1
					c-0.3-0.5-0.6-1-1-1.3C192.4,43.6,201.5,41.3,206.4,40.8L206.4,40.8z"/>
				<path class="st3" d="M265.6,52l0.1,0.1l0,0c4.3,1.8,11.5,3,17.8,3l0,0c4.2,0,11.4-0.6,13.3-4.3v0c0-1.5-0.9-2.8-2.1-3.5
					c-2.7-1.9-8.2-3-14.2-3c-7.6,0-15.8,2-16,6.3v0l0.1,0C265,51.1,265.4,51.5,265.6,52z M280.5,44.5c5.9,0,11.3,1.2,14,3
					c1.2,0.7,2,1.9,2,3.3c-1.9,3.6-9,4.2-13,4.2l0,0c-6.2,0-13.3-1.2-17.6-3l0-0.1c-0.3-0.5-0.6-0.9-1-1.3
					C265,46.4,273,44.5,280.5,44.5L280.5,44.5z"/>
				<path class="st3" d="M74.2,138c-1.5,4.4-3.1,8.9-2.5,15.7c5.1,11.8,11.1,20.7,18.3,27.3c1.9,1.8,4.1,3.4,6.4,4.7
					c4.4,2.2,9.3,3.2,14.2,3.2l0,0c5.2,0,9.6-1.2,12.4-3.4c3.2-2.4,4.3-5.9,3.5-10.3c-0.7-2.7-1.8-5.2-3.2-7.6
					c-1.4-2.4-2.5-4.9-3.2-7.6c-1.9-9.6,4.2-19.6,16.4-26.7c5.2-3,10.5-5.5,15.6-7.8c5.7-2.5,11.3-5.4,16.8-8.5
					c8.3-5,17.6-10.7,19.2-19.3v0c-1-4.1-2.9-8.3-9.8-11.2c-4.3-1.8-9-2.6-13.6-2.5c-4.8,0.1-9.6,0.5-14.3,1.2
					c-5.6,0.8-11.2,1.2-16.8,1.3c-1.4,0-2.8,0-4.2-0.1c-2.8-0.2-6.2-0.7-9.9-1.3c-4.6-0.9-9.3-1.4-14-1.6c-0.8,0-1.5,0-2.3,0.1
					C97.8,83.9,92,87,87.6,89.7c-7.3,4.5-14.2,9.1-15.4,12.9c-0.4,1.9-0.4,3.8,0,5.6c0.4,2.4,1.1,4.8,2.1,7
					c1.4,3.8,2.9,7.8,2.2,14.2C76.1,132.4,75.3,135.3,74.2,138z M74.5,115.3c-0.9-2.3-1.6-4.6-2-7c-0.4-1.8-0.4-3.7,0-5.6
					c1.1-3.8,8-8.4,15.3-12.8c4.4-2.7,10.1-5.8,15.4-6.3c0.7-0.1,1.4-0.1,2.3-0.1c4.7,0.2,9.3,0.7,13.9,1.6c3.7,0.6,7.1,1.2,9.9,1.3
					c1.4,0.1,2.8,0.1,4.2,0.1c5.6-0.1,11.3-0.5,16.8-1.3c4.7-0.7,9.5-1.1,14.3-1.2c4.6-0.1,9.2,0.7,13.5,2.5c6.8,3,8.7,7.1,9.6,11.1
					c-1.5,8.5-10.8,14.2-19.1,19.2c-5.4,3.1-11,6-16.7,8.5c-5.2,2.4-10.5,4.8-15.7,7.8c-12.3,7.1-18.4,17.1-16.5,26.8
					c0.7,2.7,1.8,5.2,3.2,7.6c1.4,2.4,2.5,4.9,3.2,7.6c0.9,4.4-0.3,7.8-3.4,10.2c-2.8,2.1-7.1,3.3-12.2,3.3l0,0c-4.9,0-9.7-1-14-3.2
					c-2.3-1.3-4.4-2.8-6.3-4.6c-7.2-6.5-13.2-15.4-18.3-27.2c-0.6-6.7,0.9-11.3,2.5-15.6c1.1-2.7,1.8-5.6,2.2-8.5
					C77.5,123.1,76,119.1,74.5,115.3z"/>
				<path class="st3" d="M91,137.5c0.3,0.8,0.5,1.6,0.7,2.5c0.7,3.1,1.6,6.6,6.3,8.3l0,0h0c5.8-0.3,9.4-3.7,13.3-7.4
					c1.4-1.3,2.8-2.6,4.3-3.8c8.5-6.6,18.1-10.9,27.3-15.2c6.2-2.7,12.3-5.8,18.1-9.2c1.5-0.6,2.9-1.4,4.1-2.6
					c0.9-0.8,1.9-1.5,2.9-2.1c5-4.2,6.6-9.1,4.2-12.4c-1.5-2.1-5.3-4.7-14.9-4.7c-1.3,0-2.6,0.1-4,0.1c-3.1,0.2-6.6,0.6-10.2,1.1
					c-4.1,0.5-8.7,1.1-13.4,1.4c-1,0.1-1.9,0.1-2.8,0.2c-12.5,0.8-20,1.4-27.5,7.3c-5.2,4-8.5,10-9,16.5c-0.3,4.6-0.3,9.2,0.2,13.8
					C90.8,133.6,91,135.7,91,137.5z M90.7,117.7c0.5-6.5,3.8-12.4,8.9-16.4c7.4-5.9,14.5-6.4,27.4-7.3c0.9-0.1,1.8-0.1,2.8-0.2
					c4.7-0.3,9.3-0.9,13.4-1.4c3.7-0.4,7.2-0.9,10.2-1.1c1.4-0.1,2.7-0.1,4-0.1c9.4,0,13.1,2.5,14.6,4.6c2.4,3.3,0.7,8.1-4.2,12.2
					c-1.1,0.6-2.1,1.3-3,2.1c-1.1,1.1-2.5,2-4,2.5l0,0c-5.8,3.5-11.9,6.5-18.1,9.2c-9.3,4.2-18.8,8.6-27.4,15.2
					c-1.5,1.2-2.9,2.5-4.3,3.8c-3.8,3.6-7.4,7-13,7.3c-4.6-1.6-5.4-5-6.2-8.2c-0.2-0.9-0.4-1.7-0.7-2.5c0-1.8-0.2-3.9-0.4-6.1
					C90.4,126.9,90.3,122.3,90.7,117.7L90.7,117.7z"/>
				<path class="st3" d="M264.8,116.1c2,12.8,4,24.9,18.9,33.5c10,5.8,26.2,12,41.7,12l0,0c9.4,0,17.2-2.3,23.1-7
					c5.1-4,7.7-8.7,10.7-14.2c0.3-0.6,0.7-1.2,1-1.8c0.6-1,1.2-2.1,1.8-3.1c3.3-5.9,6.5-11.4,7.3-16.1c1.7-10.2-3.8-14.3-10.6-18.2
					c-10.6-6.2-24.4-6.6-39-7.1c-3.5-0.1-7.6-0.4-11.9-0.6c-6.8-0.4-14.5-0.9-21-0.9c-7,0-11.5,0.5-14,1.6
					c-10.4,4.6-9.1,15.8-8.1,20.4L264.8,116.1z M272.8,94.4c2.4-1.1,7-1.6,13.8-1.6c6.4,0,14.1,0.5,20.9,0.9
					c4.3,0.3,8.4,0.5,11.9,0.6c14.6,0.5,28.4,1,38.9,7.1c6.8,3.9,12.2,8,10.5,18.1c-0.8,4.6-3.9,10.1-7.3,16c-0.6,1-1.2,2.1-1.7,3.1
					c-0.4,0.6-0.7,1.2-1,1.8c-3,5.4-5.6,10.1-10.6,14.1c-5.8,4.6-13.5,6.9-22.8,6.9c-15.4,0-31.5-6.2-41.5-12
					c-14.8-8.6-16.7-20.6-18.8-33.4l-0.3-1.5C263.8,110,262.6,98.9,272.8,94.4z"/>
				<path class="st3" d="M279,118.2c1.8,11,3.3,20.6,16.7,27.6c8.8,4.5,18.5,6.9,28.5,7.2l0,0c5.5,0,10.1-1,13.8-2.9
					c10.4-5.4,14.9-16.6,15.7-24.6c0.8-9.2-4.2-17.3-13.5-21.6c-8.5-4-19.3-4.4-30.8-4.8c-2.5-0.1-5-0.2-7.5-0.2
					c-7.2,0-16.1,0.6-20.6,5.3c-2.6,3.6-2.5,7.8-2.3,11.8C279,116.8,279,117.5,279,118.2z M281.5,104.3c4.5-4.6,13.2-5.2,20.4-5.2
					c2.5,0,5,0.1,7.5,0.2c11.4,0.4,22.2,0.8,30.6,4.7c9.2,4.3,14.2,12.3,13.3,21.5c-0.7,7.9-5.2,19.1-15.6,24.5
					c-4.3,2-8.9,3-13.6,2.8l0,0c-9.9-0.2-19.5-2.7-28.3-7.1c-13.2-7-14.7-16.1-16.5-27.5c0-0.7,0-1.4-0.1-2.1
					C279,112,278.9,107.8,281.5,104.3L281.5,104.3z"/>
				<path class="st3" d="M115.1,116.4L115.1,116.4c0.4,0.2,0.8,0.4,1.1,0.7c0.4,0.3,0.9,0.6,1.4,0.8l0,0h0.1
					c7.9-1,15.5-3.3,22.6-6.9c2.5-1.3,5.4-3.2,6-5.4l0,0l0,0c-0.4-0.3-0.8-0.7-1.2-0.9c-0.3-0.2-0.7-0.4-1-0.6l0,0H144
					c-1.1-0.1-2.4-0.1-3.6-0.1c-6.6,0-15.7,1.3-21.1,5.1C116.4,110.9,114.9,113.5,115.1,116.4L115.1,116.4z M119.6,109
					c5.3-3.7,14.3-5,20.9-5c1.2,0,2.4,0,3.5,0.1c0.3,0.2,0.6,0.4,0.9,0.6c0.4,0.2,0.8,0.5,1.2,0.9c-0.6,2.2-3.5,4-5.9,5.3
					c-7,3.6-14.6,5.9-22.5,6.9c-0.4-0.2-0.9-0.4-1.2-0.7c-0.3-0.3-0.7-0.5-1.1-0.7C115.2,113.5,116.6,111,119.6,109z"/>
				<path class="st3" d="M306.9,140.8c4.4,1.9,9.2,2.9,14.1,3l0,0c6.1,0,11.2-1.8,14.8-5.1c8.4-7.8,4.6-22.5-7.5-28.7
					c-5.3-2.6-11.1-3.8-16.9-3.7c-1.9,0-3.9,0.1-5.8,0.3c-8.5,1-12.9,5.4-12.7,12.9C293,125.3,295,135.6,306.9,140.8z M305.7,106.8
					c1.9-0.2,3.8-0.3,5.7-0.3c5.8-0.1,11.5,1.1,16.8,3.6c5.6,2.7,9.7,7.7,11.3,13.7c1.4,5.7,0,11.2-3.9,14.8c-3.6,3.3-8.6,5-14.6,5
					l0,0c-4.8,0-9.5-1-13.9-2.9c-11.7-5.1-13.7-15.4-13.8-21C293,112.2,297.4,107.8,305.7,106.8z"/>
				<path class="st3" d="M33.8,191.1c1,1.3,2.2,2.6,3.4,3.7l0.1,0c1.7,1.5,4.7,4.1,8.9,3.6c4.5-0.4,10.3-4,9.3-9.2
					c-0.8-4.2-5-7.2-13.2-9.6c-0.5-0.1-1-0.3-1.6-0.5c-3.9-1.1-7.6-2.2-9.3-4.7c-1.8-5-2.1-11.6-2.5-18.7c-0.3-5.9-0.6-12-1.8-17.1
					c-2.3-10-9.9-16-23.3-18.2c-1.2-0.2-2.4-0.4-3.7-0.5v0.2c1.3,0.1,2.5,0.3,3.7,0.5c13.3,2.2,20.9,8.2,23.1,18.1
					c1.2,5.2,1.5,11.3,1.8,17.1c0.4,7.1,0.7,13.8,2.5,18.8c1.8,2.6,5.5,3.6,9.5,4.8c0.5,0.2,1.1,0.3,1.6,0.5c8,2.3,12.2,5.4,13,9.5
					c1,5.1-4.7,8.6-9,9c-4,0.4-6.9-2.1-8.6-3.5l-0.1,0c-1.2-1.1-2.4-2.4-3.4-3.7c-3.5-4.2-7.1-8.6-17.4-7.4
					c-4.9,0.5-10.3,2.3-16.7,5.3v0.2c6.4-3,11.9-4.8,16.7-5.3C26.8,182.6,30.4,186.9,33.8,191.1z"/>
				<path class="st3" d="M6.7,167.2c5.8-4,9.1-10.8,8.7-17.8c-0.4-6.8-4.2-12.9-10-16.4c-1.7-0.8-3.5-1.4-5.4-1.7v0.2
					c1.8,0.3,3.5,0.9,5.2,1.6c5.8,3.5,9.5,9.5,9.9,16.3c0.4,7-2.9,13.7-8.6,17.7c-2,1.4-4.2,2.7-6.5,3.7v0.2
					C2.4,170,4.6,168.7,6.7,167.2z"/>
				<path class="st3" d="M248.1,168.3c-0.4-1.3-1-2.6-1.8-3.8c-5.7-9.5-19-19.4-28.6-25c-6.6-3.8-12.1-6.1-16.4-6.7
					c-1-0.1-1.9-0.2-2.9-0.2c-11.5,0-25.7,7.9-26.6,14.8c0.1,0.3,0.2,0.7,0.3,1c0.2,0.5,0.3,1,0.3,1.6v0l0,0
					c4.1,6.4,8.7,12.5,13.9,18.2c2.2,2.6,4.8,5,7.6,7c7.3,4.9,20.1,8.4,31,8.4l0,0c6,0,11.1-1,15-3
					C246.5,177.3,249.2,173.2,248.1,168.3z M224.9,183.4L224.9,183.4c-10.8,0-23.5-3.4-30.8-8.3c-2.8-2-5.4-4.3-7.6-6.9
					c-5.1-5.6-9.7-11.7-13.8-18.1c0-0.6-0.1-1.1-0.3-1.6c-0.1-0.3-0.2-0.6-0.3-1c0.9-6.8,14.9-14.6,26.3-14.6c1,0,1.9,0.1,2.9,0.2
					c4.2,0.6,9.6,2.8,16.2,6.6c9.6,5.6,22.9,15.5,28.5,24.9c0.8,1.2,1.4,2.4,1.8,3.7c1.1,4.8-1.6,8.8-8.1,12.1
					C235.9,182.4,230.9,183.4,224.9,183.4L224.9,183.4z"/>
				<path class="st3" d="M222.9,153.2c-5.8-3.6-12.7-6.1-18.1-6.7c-1-0.1-1.9-0.2-2.9-0.2c-2.8-0.1-5.6,0.6-8,2.1
					c-2.3,1.6-3.5,4.3-3.3,7.1c2.4,6.8,4.7,12.3,11.8,16.2c4.5,2.5,11.4,4.1,17.5,4.1l0,0c7.4,0,12.5-2.3,14-6.2
					c0.4-1.3,0.4-2.7,0.1-4C233.3,161.5,229.2,157.1,222.9,153.2z M233.8,169.5c-1.5,3.9-6.5,6.1-13.8,6.1l0,0
					c-6.1,0-12.9-1.6-17.4-4c-7-3.9-9.4-9.3-11.7-16.1c-0.3-2.7,1-5.4,3.2-6.9c2.3-1.4,5-2.1,7.8-2c1,0,1.9,0.1,2.9,0.2
					c11.1,1.2,27.3,10.5,29.2,18.8C234.2,166.8,234.2,168.2,233.8,169.5L233.8,169.5z"/>
				<path class="st3" d="M501,3.3c6.6,2.1,13.7,2.3,20.5,0.6c2.9-0.7,5.6-2.1,7.9-3.9h-0.3c-2.3,1.8-4.9,3-7.7,3.7
					c-6.7,1.7-13.7,1.5-20.3-0.6C499,2.5,497,1.4,495.2,0h-0.4C496.7,1.5,498.8,2.6,501,3.3z"/>
				<path class="st3" d="M270.9,10.7c2.5,1.2,4.9,2.5,7.3,3.7c5.6,3,11,5.7,16.8,7.1c6.1,2.1,12.4,3.2,18.8,3.3
					c4.8,0,9.6-0.7,14.2-2.3C341.2,18,348.7,8.3,351.6,0h-0.3c-3.9,10.7-12.5,18.9-23.4,22.3c-9.8,3.3-20.9,3-32.8-1
					c-5.8-1.3-11.2-4.1-16.8-7.1c-2.3-1.2-4.7-2.5-7.3-3.7c-2.7-1.3-5.6-2.6-8.3-3.8c-5-2.2-9.9-4.4-14.2-6.8h-0.4
					c4.4,2.5,9.4,4.7,14.5,6.9C265.3,8.2,268.1,9.4,270.9,10.7z"/>
				<path class="st3" d="M365.8,14.1c1.8,2.9,5.7,4.3,12,4.3c3.1-0.1,6.1-0.3,9.2-0.7h0.1c0.6-0.1,1.2-0.1,1.9-0.1
					c2.5,0.1,5.1,0.4,7.6,1c1.3,0.3,2.6,0.5,3.9,0.7c1,0.2,2.1,0.3,3.1,0.4c4.3,0.4,8.5,1.2,12.6,2.4c1.6,0.5,3.2,1,4.7,1.4
					c7.8,2.2,15.8,4.6,21,9.1c0.3,0.3,0.6,0.6,0.9,0.8c3.5,3.6,6.7,7.3,9.8,11.2c3.4,4.5,7.2,8.7,11.2,12.6c4.1,3.9,9.7,8.2,15,12.3
					c1.9,1.5,3.6,2.8,5.3,4.2c8.5,6.8,16.6,13.1,31.4,13.1h0c4.1,0,8.3-0.4,12.3-1.2c12.8-2.3,35.5-8.1,43.3-20.7
					c2.1-3.3,3.4-8,4.9-12.9c1-3.7,2.2-7.2,3.7-10.7v-0.6c-1.6,3.7-2.9,7.4-3.9,11.3c-1.5,4.9-2.8,9.5-4.9,12.8
					c-7.7,12.5-30.3,18.2-43.1,20.5c-4,0.8-8.2,1.2-12.3,1.2h0c-14.7,0-22.7-6.3-31.2-13.1c-1.7-1.3-3.5-2.7-5.3-4.2
					c-5.3-4.2-10.9-8.5-15-12.3c-4-3.9-7.7-8.1-11.2-12.6c-3.1-3.9-6.4-7.7-9.8-11.3c-0.3-0.3-0.6-0.6-0.9-0.9
					c-5.2-4.5-13.3-6.9-21.1-9.2c-1.6-0.5-3.2-0.9-4.7-1.4c-4.2-1.1-8.4-1.9-12.7-2.4c-1-0.1-2.1-0.3-3.1-0.4
					c-1.3-0.2-2.6-0.4-3.9-0.7c-2.5-0.6-5.1-0.9-7.6-1c-0.7,0-1.3,0-1.9,0.1l-0.1,0c-3,0.4-6.1,0.6-9.1,0.6c-6.2,0-10-1.4-11.8-4.2
					c-1.8-2.9-1.2-7.8-0.7-12.2c0.1-0.7,0.2-1.3,0.2-1.9h-0.3c-0.1,0.6-0.1,1.2-0.2,1.9C364.6,6.2,364,11.2,365.8,14.1z"/>
				<path class="st3" d="M477,5.5c8,7.2,22.1,11.6,37.9,11.6c3.8,0,7.6-0.3,11.3-0.8c14-2.1,18.5-8.5,20.5-16.3h-0.3
					c-0.6,2.4-1.5,4.8-2.8,6.9c-3.2,5-8.8,7.9-17.4,9.2c-3.7,0.5-7.5,0.8-11.3,0.8c-15.7,0-29.7-4.3-37.7-11.5
					c-0.9-1.7-1.7-3.5-2.4-5.4h-0.3C475.2,1.9,476,3.7,477,5.5L477,5.5z"/>
				<path class="st3" d="M400.7,9.3c6.9,0.8,13.7,1.9,20.4,3.5c4.2,0.9,8.6,1.8,13,2.5c2.8,0.5,5.7,0.8,8.2,1.1
					c2.6,0.3,4.8,0.4,6.7,0.4l0,0c3.9,0,6.2-0.5,6.9-1.6c2-2.9,3.5-9.1,3.6-15.1h-0.3c-0.1,6-1.6,12.2-3.6,15.1
					c-0.7,1-3,1.5-6.7,1.5c-1.9,0-4.1-0.1-6.7-0.4c-2.5-0.3-5.3-0.6-8.2-1.1c-4.4-0.7-8.8-1.6-13-2.5c-6.8-1.5-13.6-2.7-20.5-3.5
					c-7-0.7-12.6-3.9-15.9-9.1h-0.3C387.8,5.3,393.5,8.6,400.7,9.3z"/>
				<path class="st3" d="M557.4,4.7c-0.4,6.6-0.7,12.4-7.3,15.7c-6.8,3.5-18.8,4.6-27.5,5.3c-0.9,0.1-1.7,0.2-2.5,0.2
					c-1.5,0.1-3.1,0.2-4.7,0.2l0,0c-8.9,0-18.3-2-27.5-3.9c-8.2-1.7-16.7-3.5-24.6-3.8h0l0,0c-4.5,0.9-5.6,4.1-5.2,6.8
					c1.3,10.7,6.9,19.4,19.4,30.2c2.5,2.2,4.9,4.3,7.2,6.5c3.8,3.6,7.7,7,11.8,10.2c6.4,4.8,14.4,7.3,23.9,7.3l0,0
					c11,0,23.3-3.4,33.9-9.4c10.9-7.9,12.5-18.3,13.2-28.4c0.1-0.8,0.1-1.6,0.1-2.5c0.2-4,0.3-9,3.3-11.5c2.7-2.2,5.6-3.9,8.8-5.3
					V22c-3.2,1.4-6.3,3.3-9,5.5c-3,2.5-3.2,7.6-3.4,11.6c0,0.9-0.1,1.7-0.1,2.5c-0.7,10-2.3,20.4-13.2,28.3
					c-10.5,6-22.7,9.4-33.7,9.4c-9.4,0-17.4-2.4-23.7-7.2c-4.1-3.2-8.1-6.6-11.8-10.2c-2.3-2.1-4.6-4.3-7.2-6.5
					c-12.5-10.7-18.1-19.5-19.4-30.1c-0.4-2.6,0.6-5.8,5-6.6c7.9,0.3,16.3,2.1,24.5,3.8c9.2,1.9,18.7,3.9,27.6,3.9l0,0
					c1.6,0,3.2-0.1,4.7-0.2c0.8-0.1,1.7-0.1,2.5-0.2c8.7-0.7,20.7-1.8,27.6-5.3c6.7-3.4,7-9.2,7.4-15.9c0.1-1.4,0.1-2.8,0.3-4.3
					c0-0.1,0.1-0.3,0.1-0.4h-0.3c0,0.1,0,0.2,0,0.4C557.5,1.8,557.5,3.3,557.4,4.7z"/>
				<path class="st3" d="M561.6,93.9L561.6,93.9c-1.9,1-4.7,2.5-4.4,4.6l0,0l0,0c0.6,0.3,1.1,0.6,1.6,1l0,0h0
					c3.4,0.5,6.9,0.7,10.3,0.7l0,0c3.5,0,7-0.2,10.5-0.7v-0.2c-3.5,0.5-7,0.7-10.5,0.7c-3.4,0-6.8-0.2-10.2-0.7
					c-0.5-0.4-1-0.7-1.5-1c-0.3-1.9,2.3-3.3,4.2-4.3l0,0c3.9-1.8,8-3.3,12.1-4.4c2-0.6,3.9-1.2,5.9-1.9v-0.2c-2,0.7-4,1.3-6,1.9
					C569.2,90.8,564.8,92.1,561.6,93.9z"/>
				<path class="st3" d="M573.3,1.5c0.3,2.5,3.3,4.7,6.5,4.7V6c-3,0-5.9-2.1-6.2-4.5c-0.1-0.5-0.1-1,0-1.5h-0.3
					C573.2,0.5,573.2,1,573.3,1.5z"/>
				<path class="st3" d="M535.8,34.9c-1.8,0-3.7,0.1-5.5,0.4c-4.1,0.5-8.5,1.4-13.1,2.3c-5.2,1-10.6,2.1-15.8,2.7
					c-4.8,0.6-6.8,2-6.3,4.3v0c1.6,2.5,3.1,5.1,4.3,7.8c2.9,6.1,6,12.3,13.4,15.6c3.9,1.6,8.1,2.4,12.3,2.3l0,0
					c7.4,0,15-2.1,20.3-5.6c4.4-2.9,7.5-7.4,8.6-12.5c1.1-5-0.5-10.2-4.3-13.6C547.2,36.3,541.8,34.9,535.8,34.9z M545.3,64.6
					c-5.3,3.5-12.8,5.5-20.1,5.5c-4.2,0.1-8.3-0.7-12.2-2.3c-7.4-3.2-10.4-9.4-13.3-15.5c-1.2-2.7-2.6-5.3-4.3-7.8
					c-0.5-2.3,1.4-3.6,6.1-4.1c5.1-0.6,10.6-1.7,15.8-2.7c4.6-0.9,9-1.8,13.1-2.3c1.8-0.2,3.6-0.4,5.5-0.4c5.9,0,11.2,1.4,13.7,3.6
					C557.7,46.1,553.9,58.9,545.3,64.6L545.3,64.6z"/>
				<path class="st3" d="M228,115c1.4,1.7,2.8,3.5,3.9,5.3c1,1.5,2.1,3.1,3.1,4.7c6.2,9.5,12.7,19.4,22.1,27.3c3.9,3.1,8,6,12.2,8.8
					c3.8,2.4,7.4,5,10.9,7.8c1.4,1.2,2.7,2.5,4,3.8c2.6,2.7,5,5.2,9.1,7l0,0l1.2-0.1c15.6-0.6,29.1-1.2,43.4-2.9
					c10.2-1.2,17.4-2.6,21.4-3.9c8.3-2.8,10.5-7.9,12.9-13.3c0.3-0.6,0.5-1.1,0.8-1.7c3.5-7.6,8.6-15.4,21.7-20.2l0,0
					c0.1-0.1,0.2-0.2,0.3-0.2c2.7-1,5.4-1.9,8.2-2.9c4.7-1.7,9.6-3.4,14.5-5.1c2.1-0.7,4.2-1.5,6.2-2.2c3.2-1.1,6.5-2.3,9.7-3.4
					c2.1-0.7,4.2-1.7,6.2-2.7c0.5-0.2,1-0.5,1.5-0.7c1.9-1,4-1.8,6.1-2.4c4.3-1.1,9.1-1.3,13.6-1.4c4,0,8-0.3,11.9-1
					c3.7-0.7,6.2-1.3,8.4-3.4c6.9-6.7,3.4-11.8-2.3-18.1c-5.9-6.7-13.3-12-21.5-15.5c-1.5-0.6-3.1-1.2-4.7-1.6
					c-1.8-0.5-3.5-1.1-5.1-1.9c-1.9-0.9-3.7-1.8-5.4-2.7c-1.4-0.7-2.9-1.5-4.4-2.2c-6.8-3.5-14-6.2-21.4-8.1
					c-2.7-0.5-5.4-0.8-8.1-0.8c-2.2,0-4.4,0.1-6.6,0.4c-2.3,0.4-4.5,1-6.7,1.9c-0.9,0.3-1.9,0.7-2.9,1c-1.1,0.3-2.2,0.6-3.3,0.8
					c-1.4,0.3-2.8,0.7-4.2,1.2c-3.3,1.2-6.5,2.6-9.6,4c-3,1.3-6,2.7-9.2,3.9c-14.9,5.6-27.7,8.8-40.1,10c-3.7,0.4-7.5,0.6-11.2,0.6
					c-4.6,0-9.2-0.3-13.7-0.8c-3.5-0.4-7.1-1.1-10.6-1.8c-6.1-1.1-12.4-2.3-18.6-2.3c-3.2,0-6.3,0.3-9.4,1.1
					c-5.9,1.5-11.2,4.5-16.8,7.7c-2.9,1.6-5.8,3.3-9,4.9c-0.7,0.3-1.6,0.8-2.7,1.2c-2.3,1.1-5.1,2.4-7.5,3.8c-4.5,2.6-5.8,5-4.3,8.2
					C223.9,109.7,225.8,112.5,228,115z M226.7,98.6c2.4-1.4,5.2-2.7,7.5-3.8c1-0.5,1.9-0.9,2.6-1.3c3.2-1.6,6.2-3.3,9-4.9
					c5.5-3.2,10.8-6.2,16.7-7.6c3.1-0.7,6.2-1.1,9.3-1.1c6.1,0,12.4,1.2,18.5,2.3c3.5,0.7,7.1,1.3,10.6,1.8
					c4.6,0.6,9.2,0.8,13.8,0.8c3.7,0,7.5-0.2,11.2-0.6c12.5-1.2,25.3-4.4,40.2-10c3.2-1.2,6.2-2.6,9.2-3.9c3.1-1.4,6.3-2.8,9.5-4
					c1.4-0.5,2.7-0.9,4.1-1.1c1.1-0.3,2.2-0.5,3.3-0.9c1-0.3,2-0.7,2.9-1c2.1-0.9,4.3-1.5,6.6-1.8c2.2-0.3,4.3-0.4,6.5-0.4
					c2.7,0,5.4,0.2,8,0.8c7.4,1.9,14.5,4.6,21.3,8.1c1.5,0.7,3,1.5,4.4,2.2c1.8,0.9,3.6,1.8,5.4,2.7c1.7,0.7,3.4,1.4,5.2,1.9
					c1.6,0.5,3.1,1,4.6,1.6c8.2,3.5,15.5,8.8,21.4,15.4c5.6,6.3,9.1,11.3,2.3,18c-2.1,2.1-4.6,2.7-8.2,3.4c-3.9,0.7-7.9,1-11.9,1
					c-4.6,0.1-9.4,0.3-13.8,1.4c-2.1,0.6-4.2,1.4-6.1,2.4c-0.5,0.2-1,0.5-1.5,0.7c-2,1-4,2-6.1,2.7c-3.3,1.1-6.6,2.2-9.7,3.4
					c-2,0.7-4.1,1.5-6.2,2.2c-4.8,1.7-9.7,3.4-14.5,5.1c-2.7,1-5.4,2-8.2,2.9l0,0c-0.1,0.1-0.2,0.2-0.3,0.3
					c-13.2,4.9-18.2,12.6-21.8,20.3c-0.3,0.6-0.5,1.1-0.8,1.7c-2.4,5.3-4.7,10.4-12.8,13.2c-4,1.4-11.2,2.7-21.4,3.9
					c-14.3,1.8-27.8,2.3-43.4,2.9l-1.1,0c-4-1.7-6.4-4.2-9-6.9c-1.2-1.4-2.6-2.6-4-3.9c-3.5-2.8-7.1-5.4-10.9-7.8
					c-4.2-2.7-8.2-5.6-12.1-8.8c-9.4-7.9-15.9-17.7-22.1-27.2c-1-1.6-2.1-3.2-3.1-4.7c-1.2-1.8-2.6-3.6-4-5.3
					c-2.2-2.6-4.1-5.4-5.7-8.3C221.1,103.5,222.3,101.2,226.7,98.6L226.7,98.6z"/>
				<path class="st3" d="M251.8,127.3l0.5,1.3c5.4,13.6,13.5,21.6,29.8,29.6l0.4,0.2c8.8,4.3,16.4,8.1,24.8,9.8
					c4.9,1,9.9,1.4,14.9,1.4h0c6.7,0.1,13.4-0.7,20-2.3c13.6-3.8,18.6-11.8,24.4-21.1c7.6-12.2,20.8-27.9,40.9-33.8
					c3.6-0.9,7.2-1.4,10.9-1.5c1.4-0.1,2.9-0.2,4.4-0.3c5.7-0.5,12-1.3,19.4-2.4c1-0.1,2.1-0.3,3.1-0.5c5.4-0.8,12.6-3.1,14.9-6.9
					c1.7-2.8,1.5-5.3-0.7-7.6c-6.6-6.6-29.1-8.9-38.4-8.9H421c-4.1,0-8.3,0.3-12.4,0.6c-2.3,0.2-4.7,0.3-7,0.4
					c-3.8,0.2-7.5,1-11,2.6c-4.3,1.8-9,2.6-13.6,2.5c-4-0.1-8.1-0.4-12.1-0.9c-1.3-0.1-2.6-0.3-3.9-0.4c-5.5-0.5-11.4-0.8-18.6-0.8
					c-4.5,0-9,0.1-13.3,0.2c-4.3,0.1-8.8,0.2-13.1,0.2c-6.8,0.1-13.6-0.3-20.3-1c-1.7-0.2-3.6-0.5-5.6-0.8
					c-4.6-0.9-9.3-1.3-13.9-1.5c-2.5,0-4.9,0.2-7.3,0.7c-11.2,2.3-20.6,11.4-22.3,18.6c-0.6,2.9-0.5,5.8,0.3,8.6
					C248.2,118.2,249.9,122.8,251.8,127.3z M246.9,104.9c1.7-7.1,11-16.2,22.1-18.4c2.4-0.5,4.8-0.7,7.3-0.7
					c4.7,0.1,9.3,0.6,13.9,1.5c2,0.3,3.9,0.6,5.6,0.8c6.8,0.7,13.6,1.1,20.4,1c4.4,0,8.8-0.1,13.1-0.2c4.3-0.1,8.8-0.2,13.3-0.2
					c7.2,0,13.1,0.3,18.5,0.8c1.3,0.1,2.7,0.3,3.9,0.4c4,0.5,8.1,0.8,12.1,0.9c4.7,0.1,9.4-0.7,13.8-2.5c3.4-1.5,7.1-2.4,10.9-2.5
					c2.3-0.1,4.7-0.3,7-0.4c4-0.3,8.3-0.6,12.3-0.6h0.2c9.2,0,31.6,2.2,38.1,8.8c2.1,2.2,2.4,4.7,0.7,7.4c-2.3,3.7-9.4,6-14.7,6.8
					c-1,0.1-2.1,0.3-3.1,0.5c-7.4,1.1-13.8,1.8-19.4,2.4c-1.5,0.1-3,0.2-4.4,0.3c-3.7,0.1-7.4,0.6-11,1.5
					c-20.2,5.9-33.4,21.7-41,33.9c-5.7,9.2-10.7,17.2-24.2,21c-6.5,1.6-13.2,2.4-19.9,2.3h0c-5,0-9.9-0.4-14.8-1.4
					c-8.4-1.8-16-5.5-24.8-9.8l-0.4-0.2c-16.2-8-24.3-16-29.7-29.5l-0.5-1.3c-1.9-4.5-3.5-9.1-4.8-13.7
					C246.4,110.7,246.3,107.7,246.9,104.9z"/>
				<path class="st3" d="M555.2,124L555.2,124c-0.7,0.8-1.3,1.4-1.8,2c-1.9,2-3,3.3-3.6,6.6c-0.3,2.7-0.4,5.4-0.1,8.1
					c0.4,3.2,0.2,6.4-0.4,9.5c-2.8,11.3-16.2,22.9-31.2,27.1c-1.6,0.5-3.2,0.8-4.8,1.1c-1,0.1-2,0.2-3.1,0.2l0,0
					c-8.8,0-10.8-5.8-12.8-11.4c-0.5-1.3-0.9-2.5-1.4-3.7c-1.7-4.2-4.8-7.7-8.8-9.9c-4.1-2.2-9.6-3.7-17.8-4.7
					c-3.1-0.4-6.2-0.6-9.4-0.6c-6.2,0.1-12.3,0.9-18.3,2.4c-0.3,0.1-0.6,0.1-0.9,0.2c-3.9,0.9-7.3,1.7-9.7,4.1
					c-4.5,4.8-8.2,12.5-6.5,17.9c1.7,5.3,7.5,6.4,13.6,7.5c1.2,0.2,2.4,0.4,3.6,0.7c1.6,0.3,3.1,0.8,4.7,1.3
					c10.5,3.9,21.3,7.2,32.1,9.9c10.8,2.8,16,8.9,21,14.8c4.9,5.7,10,11.7,20.1,14.5c1.7,0.5,3.4,0.7,5.2,0.7l0,0
					c2.5,0,4.9-0.4,7.4-0.9c7.2-1.7,13.7-6.9,18.5-11.2c7.6-6.8,16.9-15.2,28-20.7c0.3-0.1,0.6-0.3,0.9-0.4v-0.2
					c-0.3,0.2-0.7,0.3-1,0.5c-11.1,5.4-20.5,13.9-28.1,20.7c-4.8,4.3-11.2,9.5-18.3,11.1c-2.4,0.6-4.8,0.9-7.3,0.9l0,0
					c-1.7,0-3.4-0.2-5.1-0.6c-10-2.8-15.1-8.7-20-14.4c-5.1-5.9-10.3-12.1-21.2-14.9c-10.9-2.7-21.6-6-32.1-9.9
					c-1.5-0.6-3.1-1-4.7-1.3c-1.2-0.3-2.4-0.5-3.6-0.7c-6-1.1-11.8-2.2-13.4-7.4c-1.7-5.4,1.9-13,6.5-17.8c2.3-2.4,5.6-3.2,9.5-4.1
					c0.3-0.1,0.6-0.1,0.9-0.2c5.9-1.5,12-2.3,18.2-2.4c3.1,0,6.2,0.2,9.3,0.6c15.9,2,22.5,5.6,26.4,14.5c0.5,1.2,1,2.5,1.4,3.7
					c2,5.7,4.1,11.6,13.1,11.6l0,0c1,0,2.1-0.1,3.1-0.2c1.6-0.3,3.3-0.6,4.9-1.1c7.5-2.1,14.5-5.9,20.5-11c5.7-5,9.5-10.7,10.9-16.2
					c0.6-3.2,0.7-6.4,0.4-9.6c-0.3-2.7-0.2-5.4,0.1-8c0.5-3.3,1.7-4.6,3.6-6.6c0.5-0.6,1.1-1.2,1.8-2c5.7-3,12.2-4.5,18.6-4.4
					c1.9,0,3.8,0.1,5.7,0.3v-0.2c-1.9-0.2-3.8-0.3-5.7-0.3C567.4,119.4,561,120.9,555.2,124z"/>
				<path class="st3" d="M564.8,137.3c-1.4,2.7-1.6,5.5-1.9,8.7c-0.1,1.1-0.2,2.3-0.4,3.6c-0.8,5-1.9,10-3.4,14.8
					c-1.3,4.8-2.6,9.4-2.9,13v0l0.1,0c0.9,0.5,1.8,0.8,2.8,0.8c0.2,0,0.4,0,0.6-0.1l0,0c2.7-1,5.6-2,8.4-2.9c4-1.2,7.9-2.7,11.7-4.3
					v-0.2c-3.9,1.7-7.8,3.1-11.8,4.3c-2.8,0.9-5.7,1.9-8.4,2.9c-0.2,0-0.3,0-0.5,0c-0.9,0-1.8-0.3-2.6-0.7c0.2-3.6,1.5-8.1,2.9-12.9
					c1.5-4.9,2.7-9.8,3.5-14.9c0.2-1.3,0.3-2.4,0.4-3.6c0.3-3.2,0.6-6,1.9-8.7c1.9-3.7,6.5-6.1,11.7-6.1c1,0,2,0.1,3,0.3v-0.2
					c-1-0.2-2-0.2-3-0.2C571.4,131,566.7,133.5,564.8,137.3z"/>
				<path class="st3" d="M460.9,161.6c-5.1,0-10.2,1.7-10.2,5.4v0c1.6,3.7,9.1,8.1,15.7,8.1l0,0c1.5,0,3-0.3,4.4-0.8
					c1.6-0.6,2.9-1.9,3.4-3.5c0.4-2.2-0.4-4.5-2.2-5.9C469.8,162.8,465.5,161.6,460.9,161.6z M473.9,170.7c-0.5,1.6-1.8,2.8-3.3,3.4
					c-1.3,0.6-2.8,0.8-4.2,0.8c-6.5,0-13.9-4.4-15.5-8c0.1-3.6,5-5.2,10-5.2c4.5,0,8.7,1.2,11,3.3
					C473.5,166.4,474.3,168.6,473.9,170.7L473.9,170.7z"/>
				<path class="st3" d="M545.9,116.4c-7.3,3.4-11.7,8.2-13.1,14.3c-0.4,2.5-0.3,5,0.3,7.5c0.4,2.6,0.9,5.4,0.2,7.9
					c-0.8,3.1-3.1,5.6-6,6.8c-2.2,0.8-4.6,0.9-6.9,0.3c-7.9-6.2-14.4-10.3-24.1-12.9c-2.8-0.8-5.6-1.4-9.1-2.1
					c-1.7-0.4-3.4-0.7-5.1-1.1c-10.6-2.3-21.6-4.7-39.4-3.7c-8.6,0.5-15,1.5-20.6,5.3c-3.4,2.4-6.5,5.3-9.2,8.5
					c-2,2.2-4.1,4.3-6.3,6.2c-1.2,1-2.6,2-3.9,2.9c-2,1.3-3.9,2.8-5.6,4.5c-3.2,3.4-3.3,8.9-2.1,12.7c1.6,4.9,6.2,9.1,11,13
					c1.1,1,2.3,2,3.5,3.2c3.1,3,6.4,6.1,10.9,7.7c5,1.8,10.8,1.8,16.3,1.5c1.9-0.1,3.8-0.4,5.7-0.8c2.7-0.6,5.6-0.9,8.4-0.7
					c9.8,1.2,20.9,5.7,28,9.6c3.7,2,7.2,4.4,10.4,7.1c2.4,2,4.6,4.1,7.1,6.2c4.1,3.7,8.4,7.6,13.3,11.4c4.5,3.5,10.4,6.9,19.6,4.7
					c4.8-1.2,9.5-3.1,14-5.4c6.2-3.1,11.8-7.4,17.3-11.5c5-3.8,9.7-7.4,14.3-9.6c1.6-0.8,3.4-1.3,5.2-1.5v-0.2
					c-1.8,0.2-3.6,0.8-5.3,1.6c-4.7,2.2-9.4,5.8-14.4,9.7c-5.4,4.1-11,8.5-17.2,11.5c-4.4,2.3-9.1,4.1-13.9,5.4
					c-9.1,2.1-14.9-1.2-19.4-4.7c-4.8-3.8-9.1-7.6-13.3-11.4c-2.4-2.2-4.7-4.2-7.1-6.2c-3.2-2.7-6.7-5.1-10.4-7.1
					c-7.1-3.9-18.3-8.5-28.1-9.7c-2.8-0.2-5.7,0-8.5,0.7c-1.9,0.4-3.8,0.6-5.7,0.8c-5.5,0.3-11.2,0.3-16.1-1.5
					c-4.5-1.6-7.7-4.7-10.8-7.7c-1.2-1.1-2.3-2.2-3.5-3.2c-4.7-3.9-9.4-8.1-10.9-13c-1.2-3.7-1-9.3,2.1-12.6
					c1.7-1.7,3.6-3.2,5.6-4.5c1.3-0.9,2.8-1.9,3.9-2.9c2.2-2,4.3-4,6.3-6.3c2.7-3.2,5.8-6,9.2-8.4c5.6-3.8,12-4.8,20.5-5.3
					c17.8-1,28.7,1.4,39.3,3.7c1.7,0.4,3.4,0.7,5.1,1.1c3.5,0.7,6.3,1.4,9.1,2.1c9.7,2.6,16.2,6.7,24,12.9l0,0l0,0
					c2.4,0.6,4.9,0.5,7.2-0.3c3-1.2,5.3-3.7,6.2-6.9c0.6-2.6,0.2-5.3-0.3-8c-0.5-2.5-0.6-5-0.3-7.5c1.3-6.1,5.7-10.8,12.9-14.2
					c8.3-3.9,19.9-5.7,33.6-5.3V111C565.9,110.7,554.3,112.5,545.9,116.4z"/>
				<path class="st3" d="M158,17.3c0.5,2.5,1,7.2-0.3,10.4c-2.2,5.2-8.4,9.7-14.5,14c-8.6,6.1-17.4,12.4-14.7,20.9
					c1.5,4.6,5.1,7.4,11.3,8.7c5.3,1.1,11.8,1,19.2,0.7c13.4-0.5,22.5,1,27.8,2.3c5.2,1.5,10.2,3.4,15,5.8
					c6.4,2.9,12.4,5.8,19.3,6.4c2.5,0.3,5.1,0.2,7.6-0.2c6.4-0.9,11.2-3.1,16.3-5.4c8.7-3.9,17.6-7.9,35-5.5
					c3.8,0.5,7.6,1.3,11.6,2.1c12.8,2.5,26.1,5.2,40.9-0.1c13.4-4.5,21.8-12.8,30-20.8c3.8-3.9,7.8-7.6,12.1-11
					c5.6-4.3,13.1-10.3,22.4-8.2c3.7,0.7,7.5,1.3,11.3,1.6c5.9,0.6,12,1.3,17.5,3.6c3.6,1.6,6.9,3.8,10,6.3c1.4,1.1,2.8,2.2,4.3,3.2
					c3.1,2.2,6,4.7,8.6,7.5c2.3,2.3,4.7,4.5,7.2,6.4c3.6,2.1,6.8,4,10.5,6.2c4.3,2.8,8.5,5.8,12.5,9.1c7.6,6,14.7,11.7,24,13.5
					c6.6,1.3,13.4,1.1,22-0.5c4.6-0.9,10.7-2.6,15-4c8.9-2.7,17.7-6,26.2-9.7c6-2.7,10.6-6.4,13.4-10.9v-0.5
					c-2.7,4.6-7.4,8.5-13.5,11.2c-8.6,3.7-17.3,7-26.2,9.7c-4.3,1.3-10.4,3.1-15,3.9c-8.6,1.7-15.4,1.8-21.9,0.6
					c-9.2-1.8-16.3-7.5-23.9-13.5c-4-3.3-8.2-6.3-12.5-9.1c-3.7-2.2-6.9-4.1-10.5-6.3c-2.5-2-4.9-4.1-7.2-6.4
					c-2.7-2.7-5.6-5.2-8.7-7.5c-1.5-1-3-2.1-4.3-3.2c-3-2.5-6.4-4.7-10-6.3c-5.5-2.3-11.7-3-17.6-3.6c-3.8-0.3-7.5-0.9-11.3-1.6
					c-9.5-2.1-17.2,3.9-22.7,8.3c-4.2,3.4-8.3,7.1-12.1,11c-8.1,8-16.5,16.3-29.9,20.8c-14.7,5.2-28,2.6-40.7,0.1
					c-4-0.8-7.8-1.5-11.7-2.1c-17.5-2.3-26.5,1.7-35.2,5.6c-5.1,2.3-9.9,4.4-16.3,5.4c-2.5,0.4-5,0.4-7.4,0.2
					c-6.8-0.6-12.8-3.4-19.2-6.3c-4.8-2.4-9.9-4.4-15.1-5.9c-5.3-1.3-14.4-2.8-27.9-2.3c-12.6,0.5-26.9,1-30.2-9.2
					c-2.7-8.3,6.1-14.6,14.6-20.7c6.1-4.3,12.4-8.8,14.5-14.1c1.3-3,0.9-7.3,0.3-10.4c-0.9-5-3.1-10.1-5.4-15.5
					c-0.2-0.6-0.5-1.2-0.7-1.8h-0.3c0.3,0.6,0.5,1.2,0.8,1.8C154.9,7.2,157.1,12.3,158,17.3z"/>
				<path class="st3" d="M148.3,355.4c2.1-4.6,5.6-7.3,11.2-11.5c0.9-0.7,1.8-1.3,2.9-2c4-2.8,8.5-5.9,9.5-9.2
					c2-6.5-4-10.3-10.2-13.2c-3.2-1.4-6.5-2.6-9.8-3.6c-4.3-1.4-8.7-2.9-12.4-5c-4-2.4-7.5-5.7-10-9.6c-1.1-1.8-1.9-3.7-2.4-5.7
					c-0.4-2-1.2-3.8-2.2-5.5c-5.4-8.1-12.4-17.2-23.9-23.6c-5-2.8-11.3-7.2-13-12.4c-1.1-3.4,0.4-6.4,1.6-8.8l0.2-0.4
					c2.7-5.4,10.9-18.4,28-21.7c3.1-0.6,6.8-1,10.8-1.5c4.7-0.4,9.3-1.1,13.9-2.1c5-1.3,9.9-3.2,14.5-5.7l0.6-0.3
					c4.2-2.2,9.5-4.9,16.4-4.5c6.6,0.5,13,2.5,18.7,5.8c6,3.4,9.9,7.4,11,11.2c0.5,2.1,0.9,4.2,1.2,6.3c0.2,1.6,0.5,3.3,0.9,4.9
					c2.2,8.5,8.3,15.3,18.1,20.1c8,3.9,18.5,6.7,31.5,8.2c12.3,1.3,24.7,0.2,36.5-3.4c8.5-2.7,17.6-9.1,25.5-14.9
					c7.8-5.8,12-9.2,12.9-18.4c0.2-2.9,0.1-5.7-0.4-8.6c-0.1-1.1-0.3-2.2-0.4-3.3c-0.1-0.8-0.2-1.6-0.3-2.5c-0.6-2.8-0.6-5.8,0-8.6
					c1.6-6.1,6.9-8.8,16.2-8.2c12.1,0.8,22.7,6.1,27,13.7c3.4,6,0.7,12.3-1.5,17.4l-0.4,0.8c-3.2,7.9-8.3,14.8-14.9,20.1
					c-3.7,2.9-7.7,5.6-11.7,8.2c-1.5,1-3,2-4.4,2.9c-2,1.4-4.3,2.7-6.5,3.9c-2.8,1.5-5.5,3.2-8,5c-3,2.4-5.7,5.1-8.1,8.1
					c-6.7,8.3-11.4,15.6-14.3,22.3c-2.6,6.1-9.9,10.9-19.5,12.9c-12.3,2.6-30,2.3-52.4-0.9c-11-1.6-17.6-5.8-19.5-12.6
					c-2.1-7.8-10-11.6-18.2-15.7c-2.1-1.1-4.3-2.1-6.4-3.3c-8.8-4.8-4.4-9.4,0.2-14.2c2.1-2.2,4.2-4.4,5.1-6.7
					c1.5-3.6-0.4-7.3-2.2-10.9c-0.9-1.7-1.7-3.6-2.3-5.4c-2.1-8.4-4.3-15-10.6-17.7c-3.4-1.5-7.8-1.7-13.4-0.6
					c-0.9,0.1-1.9,0.4-3,0.6c-2.2,0.4-4.6,0.9-6.7,1.2c-3.5,0.5-7.2,0.8-11.1,1.2c-4.1,0.4-8.4,0.7-13,1.4c-6.5,0.7-12.6,3-18,6.6
					c-4.6,3.3-7.6,7.4-8.5,12c-0.5,1.8-0.4,3.7,0.3,5.4c2.3,5.3,9.5,9,15.9,12.3c1.5,0.8,2.9,1.5,4.2,2.2l0.2,0.1
					c6.1,3.4,13.8,7.6,13.5,13.4c-0.3,6,0.8,10.3,3.8,14.5c4.7,6.6,11.2,10.6,22.7,13.8c0.9,0.2,1.7,0.5,2.6,0.7
					c3.9,1.1,8,2.2,11.8,3.6c2.6,1,5.1,2.4,7.3,4.1c1.2,0.8,2.4,1.7,3.9,2.6c1.8,1.1,3.5,2.4,5,3.7c4.3,3.6,9.2,7.6,16.8,6.7
					c3.9-0.5,7.7-2.3,11.8-4.2c3.6-1.8,7.4-3.3,11.3-4.5c7-1.8,16.8-2.3,27.2-2.7c6.3-0.3,12.9-0.6,18.8-1.2
					c13.6-1.4,22.8-4.6,28.1-9.8c1.4-1.4,2.6-3.1,3.6-4.9c0.7-1.4,1.6-2.6,2.6-3.8c0.9-0.9,2-1.7,3.1-2.4c0.7-0.4,1.3-0.8,1.9-1.2
					c1.1-0.8,2.1-1.7,3.2-2.5c1.1-0.9,2.3-1.9,3.5-2.8c1.9-1.4,4.1-2.7,6.2-4c2-1.2,4-2.4,5.8-3.7c1.4-1,2.7-2.2,3.9-3.4
					c1.4-1.4,2.9-2.7,4.5-3.8c3.2-2,6.2-4.3,8.9-6.8c1.8-1.9,3.3-4.1,4.3-6.5c0.3-0.7,0.6-1.4,1-2.1c1-1.7,2.3-3.3,3.8-4.6
					c0.9-0.9,1.7-1.8,2.5-2.7c2.6-3.2,4.9-6.5,7-10c0.5-0.9,1-1.9,1.5-2.8c0.2-0.4,0.4-0.8,0.6-1.2c0.9-1.8,1.9-3.5,2.9-5.3
					c2.8-5,5.7-10.2,7.3-14.9c1-3,1.8-6.2,0.8-9.4c-3.5-10.9-19.2-22.2-33.6-24.3c-7.9-0.9-15.8-0.9-23.6,0.2
					c-14.2,1.8-19.5,6.4-18.8,16.5c0.2,2.3,0.5,4.7,0.8,7c0.7,5,1.3,9.6,0.5,14.2c-0.5,2.3-1.4,4.5-2.7,6.4
					c-2.1,3.4-6.9,9.2-12.8,15.4c-5.9,6.1-13.4,10.4-21.7,12.3c-15,3.2-35.1,0-46.8-7.4c-5.9-3.7-12.1-10-8.6-19.1
					c0.3-0.6,0.6-1.2,0.9-1.7c0.5-0.7,0.9-1.4,1.2-2.2c1.9-2.1,4-4.1,6.3-5.8c5-4.1,9.7-8,7.9-13.6c-0.4-1.2-1-2.3-1.7-3.3
					c-1.5-2.4-3-4.9-1.2-6.3c3.8-2.9,7.7-5.7,11.8-8.1c7.7-4.9,15.8-10,18-14.8c2.3-4.8-2.4-9.6-4.4-11.6c-2.2-2.2-4.7-4.5-7.3-6.9
					c-2-1.9-4.1-3.8-6.1-5.7c-1.6-1.6-3.3-3.1-4.8-4.7c-3.7-3.5-7.1-6.8-10.7-10.4c-1.4-1.4-2.8-2.9-4.2-4.4c-2.3-2.5-4.7-5-7.1-7.1
					c-5.2-4.7-11.1-6.6-17.6-5.7c-6.4,0.9-13.3,4.2-19.3,7.2c-0.8,0.4-1.6,0.8-2.4,1.2c-11.2,5.6-24,12-27.3,19.1
					c-2.8,6,2.4,8.9,8,11.8c0.6,0.3,1.2,0.6,1.8,1c3.1,1.7,6,3.7,8.8,5.9c3,2.5,5.9,5.3,8.5,8.2c1.9,2,3.6,3.9,5.4,5.5
					c6.1,5.3,14,7.7,21.6,10c7.5,2.2,15.2,4.5,21.1,9.7c0,0.2,0,0.4,0,0.6c0.1,0.5,0,1.1-0.2,1.6c-7,5-15.6,6.3-26.4,3.9
					c-3.4-0.8-6.7-1.9-10-3.2c-7.7-2.8-15.7-5.7-24.9-3.8c-6.6,1.3-11.2,4.5-15.6,7.5c-4.4,3-8.9,6.1-15.5,7.6
					c-4.4,0.9-8.9,1.3-13.4,1.4c-14,0.7-20.8,1.8-26.6,6.7c-7.6,6.5-17,17.9-19.8,22.6c-0.9,1.4-1.6,2.8-2.2,4.3
					c-2.4,8.2,5.1,14.7,11.9,19.4c1.6,1.1,3.5,2.2,5.2,3.2c1.6,0.9,3.2,1.8,4.7,2.8c2.8,2,5.5,4.3,7.9,6.8c1.2,1.2,2.4,2.4,3.7,3.6
					c9.4,8.4,12.3,15.8,9.2,23.8c-2.2,5.8-7.2,13.1-18.8,15.1c-4.2,0.7-8.8,1.1-13.6,1.5c-4.5,0.4-9.1,0.7-13.7,1.4
					c-4,0.6-7.7,1.4-11.4,2.2c-4.9,1.1-9.9,2-14.8,2.5c-8.7,0.8-16.4-0.4-23.9-1.6c-6.6-1-12.9-2-19-1.4v0.2
					c6.1-0.6,12.4,0.4,19,1.4c7.5,1.2,15.2,2.4,24,1.6c5-0.5,10-1.4,14.9-2.5c3.6-0.8,7.4-1.5,11.4-2.2c4.5-0.7,9.1-1.1,13.6-1.4
					c4.8-0.4,9.4-0.7,13.7-1.5c9.2-1.6,15.8-6.9,19-15.2c3.1-8.1,0.2-15.5-9.2-24c-1.3-1.2-2.5-2.4-3.7-3.6
					c-2.4-2.5-5.1-4.8-7.9-6.9c-1.5-1-3.1-1.9-4.7-2.8c-1.7-1-3.6-2-5.2-3.2c-6.8-4.7-14.3-11.1-11.9-19.2c0.5-1.5,1.3-3,2.1-4.3
					c2.9-4.7,12.2-16.1,19.8-22.6c5.7-4.8,12.5-5.9,26.4-6.7c4.5-0.1,9-0.6,13.4-1.4c6.6-1.5,11.2-4.6,15.6-7.6
					c4.6-3.2,9-6.1,15.5-7.4c9.1-1.8,17,1,24.7,3.8c3.3,1.3,6.6,2.3,10,3.2c10.9,2.4,19.7,1.2,26.7-3.9l0,0c0.2-0.5,0.2-1.1,0.1-1.7
					v-0.6l0,0c-5.9-5.2-13.6-7.5-21.2-9.7c-7.6-2.3-15.5-4.6-21.5-9.9c-1.7-1.5-3.5-3.4-5.4-5.5c-2.6-2.9-5.5-5.7-8.5-8.2
					c-2.8-2.2-5.7-4.2-8.8-6c-0.6-0.3-1.2-0.6-1.8-1c-5.5-2.9-10.7-5.7-7.9-11.6c3.3-7,16-13.4,27.2-19c0.8-0.4,1.6-0.8,2.5-1.2
					c6-3,12.9-6.3,19.2-7.2s12.2,1,17.3,5.7c2.4,2.1,4.7,4.7,7.1,7.1c1.4,1.5,2.8,3,4.2,4.4c3.5,3.6,7,6.9,10.7,10.4
					c1.6,1.5,3.2,3.1,4.9,4.7c2,1.9,4.1,3.8,6.1,5.7c2.6,2.4,5.1,4.7,7.3,6.9c2,2,6.7,6.7,4.4,11.5c-2.3,4.8-10.3,9.8-18,14.8
					c-4.1,2.5-8,5.2-11.8,8.1c-1.9,1.6-0.3,4.1,1.2,6.5c0.7,1,1.3,2.1,1.7,3.2c1.8,5.5-2.9,9.4-7.8,13.5c-2.3,1.8-4.4,3.7-6.3,5.9
					l0,0c-0.3,0.8-0.7,1.5-1.2,2.2c-0.4,0.5-0.7,1.1-0.9,1.7c-2.7,7.2,0.4,14,8.7,19.3c11.7,7.4,32,10.6,47.1,7.4
					c8.3-1.9,15.9-6.2,21.8-12.4c6-6.3,10.8-12.1,12.9-15.5c1.3-2,2.2-4.2,2.7-6.5c0.8-4.6,0.1-9.2-0.5-14.2c-0.3-2.3-0.6-4.7-0.8-7
					c-0.4-5.1,0.8-8.7,3.7-11.2c2.9-2.5,7.6-4.2,14.9-5.1c7.8-1.1,15.7-1.1,23.5-0.2c14.3,2,29.9,13.3,33.4,24.1
					c1,3.1,0.2,6.3-0.8,9.3c-1.5,4.7-4.4,9.9-7.3,14.8c-1,1.7-2,3.5-2.9,5.3c-0.2,0.4-0.4,0.8-0.6,1.2c-0.5,0.9-1,1.9-1.5,2.8
					c-2.1,3.5-4.4,6.9-7,10c-0.7,0.9-1.6,1.8-2.5,2.7c-1.5,1.4-2.8,2.9-3.8,4.6c-0.4,0.7-0.7,1.4-1.1,2.1c-1,2.4-2.4,4.6-4.2,6.4
					c-2.8,2.5-5.8,4.8-8.9,6.8c-1.6,1.1-3.2,2.4-4.6,3.8c-1.2,1.2-2.5,2.4-3.9,3.4c-1.8,1.3-3.9,2.5-5.8,3.7c-2.1,1.3-4.3,2.6-6.2,4
					c-1.2,0.9-2.4,1.8-3.5,2.8c-1,0.8-2,1.7-3.1,2.5c-0.6,0.4-1.2,0.8-1.9,1.2c-1.2,0.6-2.3,1.4-3.2,2.4c-1,1.2-1.9,2.5-2.6,3.8
					c-1,1.8-2.2,3.4-3.6,4.9c-5.3,5.1-14.4,8.2-27.9,9.7c-5.9,0.6-12.5,0.9-18.8,1.2c-10.4,0.5-20.3,0.9-27.3,2.7
					c-3.9,1.1-7.7,2.6-11.4,4.5c-4,1.9-7.8,3.7-11.6,4.1c-7.4,1-12.3-3-16.6-6.6c-1.6-1.4-3.3-2.6-5.1-3.8c-1.3-0.8-2.6-1.6-3.9-2.6
					c-2.3-1.7-4.7-3.1-7.4-4.2c-3.8-1.4-7.9-2.6-11.8-3.6c-0.9-0.2-1.7-0.5-2.6-0.7c-11.4-3.2-17.9-7.2-22.5-13.7
					c-3-4.2-4.1-8.5-3.8-14.4c0.3-5.9-7.4-10.1-13.6-13.6l-0.2-0.1c-1.3-0.7-2.7-1.5-4.2-2.2c-6.6-3.4-13.5-7-15.8-12.3
					c-0.7-1.7-0.8-3.6-0.2-5.3c1.9-9.4,12-16.5,26.3-18.4c4.7-0.7,8.9-1,13-1.3c3.9-0.3,7.6-0.6,11.1-1.2c2-0.3,4.5-0.8,6.7-1.2
					c1-0.2,2-0.4,3-0.6c5.5-1,9.9-0.8,13.2,0.6c6.3,2.7,8.4,9.3,10.5,17.6c0.6,1.9,1.3,3.7,2.3,5.5c1.8,3.6,3.7,7.3,2.3,10.8
					c-0.9,2.3-3.1,4.5-5.1,6.6c-4.7,4.9-9.1,9.5-0.2,14.4c2.1,1.2,4.3,2.3,6.4,3.3c8.2,4.1,16,7.9,18.1,15.6
					c1.9,6.9,8.5,11.1,19.7,12.7c22.5,3.2,40.2,3.5,52.5,0.9c9.7-2,17-6.9,19.6-13c2.9-6.7,7.6-14,14.3-22.3c2.3-3,5-5.7,8-8
					c2.6-1.8,5.2-3.5,8-5c2.2-1.2,4.5-2.5,6.5-3.9c1.4-1,3-2,4.4-3c3.9-2.6,8-5.3,11.7-8.2c6.6-5.3,11.8-12.2,15-20.1l0.4-0.8
					c2.2-5.1,4.9-11.4,1.5-17.5c-4.3-7.6-15-13.1-27.2-13.8c-9.4-0.6-14.8,2.1-16.4,8.4c-0.8,3-0.4,5.9,0,8.7
					c0.1,0.9,0.2,1.7,0.3,2.5c0.1,1.1,0.2,2.2,0.4,3.3c0.5,2.8,0.6,5.7,0.4,8.5c-0.9,9.1-5.1,12.5-12.8,18.3
					c-7.9,5.8-17,12.2-25.4,14.8c-11.8,3.6-24.1,4.7-36.3,3.4c-28.8-3.3-45.4-12.8-49.4-28.1c-0.4-1.6-0.7-3.2-0.9-4.8
					c-0.3-2.1-0.7-4.2-1.2-6.3c-1-3.8-5-7.9-11.1-11.3c-5.8-3.3-12.2-5.3-18.8-5.8c-7-0.4-12.3,2.4-16.6,4.6l-0.6,0.3
					c-4.6,2.5-9.4,4.4-14.4,5.7c-4.6,1-9.2,1.7-13.9,2.1c-4,0.5-7.7,0.9-10.8,1.5c-17.2,3.3-25.4,16.3-28.2,21.8l-0.2,0.4
					c-1.2,2.4-2.8,5.4-1.6,8.9c1.7,5.3,8,9.7,13.1,12.5c11.4,6.4,18.5,15.5,23.8,23.5c1,1.7,1.8,3.5,2.2,5.5c0.5,2,1.3,4,2.4,5.8
					c2.6,3.9,6,7.2,10.1,9.6c3.7,2.1,8.1,3.6,12.4,5c3.3,1,6.6,2.2,9.7,3.6c6.1,2.8,12.1,6.6,10,13c-1,3.2-5.4,6.3-9.4,9
					c-1,0.7-2,1.4-2.9,2c-5.6,4.1-9.1,6.9-11.3,11.5c-1.6,3.4-1.7,9.6-0.3,14c1.1,3.6,2.6,7,4,10.3h0.3c-1.4-3.3-2.8-6.7-4-10.3
					C146.7,364.9,146.8,358.8,148.3,355.4z"/>
			</g>
		</g>
	</g>
</g>
</svg>
